<svg xmlns="http://www.w3.org/2000/svg" viewBox="0 0 200 200"><defs><radialGradient id="a" cx="40%" cy="35%" r="70%"><stop offset="0%" stop-color="#ffbd80"/><stop offset="65%" stop-color="#d86434"/><stop offset="100%" stop-color="#7b2415"/></radialGradient></defs><circle cx="100" cy="100" r="74" fill="url(#a)"/><path d="M62 80c12-11 29-15 49-6 16 8 25 21 31 37-20 9-44 16-67 11-14-3-24-13-29-25 3-5 8-11 16-17Z" fill="#9e301e" opacity=".52"/><path d="M70 126c17 3 37 1 60-10 0 17-13 31-33 34-14 2-25-7-27-24Z" fill="#7c2318" opacity=".55"/><circle cx="100" cy="100" r="80" fill="none" stroke="rgba(255,255,255,0.16)" stroke-width="3"/></svg>