<svg xmlns="http://www.w3.org/2000/svg" viewBox="0 0 200 200"><defs><radialGradient id="a" cx="45%" cy="38%" r="70%"><stop offset="0%" stop-color="#88a4c8"/><stop offset="62%" stop-color="#304760"/><stop offset="100%" stop-color="#141d2d"/></radialGradient></defs><circle cx="100" cy="100" r="74" fill="url(#a)"/><path d="M100 62c17 0 29 10 29 25 0 11-5 17-15 24-8 5-11 9-11 18h-9c0-13 4-19 13-26 8-6 12-10 12-17 0-10-7-16-18-16-9 0-17 4-24 11l-11-10c9-11 21-17 34-17Zm-6 86h12v12H94z" fill="#e5bd54"/><circle cx="100" cy="100" r="80" fill="none" stroke="rgba(255,255,255,0.16)" stroke-width="3"/></svg>